<svg xmlns="http://www.w3.org/2000/svg" xmlns:xlink="http://www.w3.org/1999/xlink" width="500" height="500" preserveAspectRatio="xMidYMid meet" version="1.0" viewBox="0 0 375 375" zoomAndPan="magnify"><rect width="450" height="450" x="-37.5" y="-37.5" fill="#fff" fill-opacity="1"/><rect width="450" height="450" x="-37.5" y="-37.5" fill="#ead9eb" fill-opacity="1"/><g fill="#8c52ff" fill-opacity="1"><g><g><path d="M 20.121094 0 C 33.101562 -0.242188 26.53125 -32.292969 25.558594 -38.78125 C 28.804688 -38.78125 34.96875 -38.132812 37.160156 -40.972656 C 39.429688 -43.8125 37.402344 -47.707031 34.480469 -49.085938 C 30.183594 -51.113281 24.582031 -50.386719 19.960938 -50.628906 C 15.820312 -50.871094 8.4375 -52.898438 4.707031 -51.195312 C 1.460938 -49.734375 0.324219 -45.839844 1.867188 -42.757812 C 4.136719 -37.972656 10.386719 -38.621094 14.765625 -38.863281 C 15.089844 -29.695312 14.117188 -20.769531 13.792969 -11.683594 C 13.550781 -7.058594 13.792969 0.0820312 20.121094 0 Z M 20.121094 0" transform="translate(72.30049, 166.261902)"/></g></g></g><g fill="#8c52ff" fill-opacity="1"><g><g><path d="M 43.730469 -2.757812 C 50.546875 -9.492188 43.082031 -21.988281 39.105469 -27.992188 C 48.273438 -36.511719 50.386719 -49.898438 38.945312 -57.363281 C 30.914062 -62.636719 6.085938 -67.097656 3.894531 -53.550781 C 2.675781 -46.328125 3.570312 -38.214844 3.082031 -30.75 C 2.597656 -23.933594 -0.242188 -14.359375 2.191406 -7.707031 C 4.460938 -1.621094 11.359375 -0.0820312 15.578125 -5.191406 C 17.6875 -7.789062 18.417969 -11.195312 19.148438 -14.359375 C 19.390625 -15.414062 19.308594 -18.253906 20.039062 -19.066406 C 20.933594 -20.039062 25.964844 -20.445312 27.261719 -20.851562 C 28.398438 -14.847656 32.941406 7.789062 43.730469 -2.757812 Z M 18.742188 -30.992188 C 18.417969 -34.238281 16.46875 -40.324219 17.445312 -43.324219 C 18.09375 -45.515625 19.632812 -45.4375 22.070312 -45.515625 C 28.074219 -45.839844 34.726562 -40.40625 27.667969 -35.457031 C 24.910156 -33.507812 21.824219 -32.210938 18.742188 -30.992188 Z M 18.742188 -30.992188" transform="translate(107.996997, 166.261902)"/></g></g></g><g fill="#8c52ff" fill-opacity="1"><g><g><path d="M 11.519531 -1.703125 C 18.09375 1.703125 29.859375 -0.242188 34.644531 -5.921875 C 40.730469 -13.0625 40.242188 -27.34375 40 -36.1875 C 40.082031 -39.59375 40.160156 -44.300781 37.320312 -46.734375 C 33.753906 -49.734375 29.777344 -47.140625 28.558594 -43.246094 C 27.261719 -38.945312 28.964844 -33.023438 28.964844 -28.476562 C 28.964844 -24.015625 29.046875 -18.984375 27.019531 -14.847656 C 24.746094 -10.304688 20.769531 -11.519531 18.984375 -15.984375 C 17.121094 -20.769531 17.851562 -26.855469 17.929688 -31.886719 C 18.09375 -37.726562 19.472656 -50.871094 10.464844 -50.953125 C -0.972656 -50.953125 1.136719 -33.914062 1.945312 -26.855469 C 3.003906 -18.335938 2.675781 -6.246094 11.519531 -1.703125 Z M 11.519531 -1.703125" transform="translate(153.510107, 166.261902)"/></g></g></g><g fill="#8c52ff" fill-opacity="1"><g><g><path d="M 23.042969 -2.273438 C 27.421875 -6.492188 26.9375 -13.0625 26.289062 -21.339844 C 25.636719 -26.53125 25.800781 -27.828125 28.722656 -32.046875 C 30.589844 -34.808594 32.453125 -37.648438 33.914062 -40.730469 C 35.457031 -44.054688 38.375 -50.953125 33.671875 -53.144531 C 26.367188 -56.632812 22.070312 -43.730469 19.308594 -39.1875 C 16.957031 -44.300781 16.144531 -51.84375 10.546875 -54.605469 C 3.976562 -57.847656 0 -52.25 1.542969 -46.246094 C 3.164062 -39.59375 9.167969 -34.320312 9.980469 -27.828125 C 10.710938 -21.257812 7.625 -9.410156 11.441406 -3.570312 C 14.523438 1.054688 21.015625 1.460938 23.042969 -2.273438 Z M 23.042969 -2.273438" transform="translate(192.451774, 166.261902)"/></g></g></g><g fill="#8c52ff" fill-opacity="1"><g><g><path d="M 13.46875 -0.164062 C 18.5 -0.40625 23.527344 -0.324219 28.476562 -0.566406 C 32.617188 -0.8125 35.699219 -1.378906 37.320312 -5.4375 C 38.296875 -8.113281 38.863281 -12.980469 36.1875 -15.011719 C 33.183594 -17.199219 28.476562 -16.226562 25.070312 -16.390625 C 21.988281 -16.550781 14.035156 -19.066406 18.660156 -23.367188 C 21.417969 -25.964844 25.71875 -22.878906 28.964844 -23.773438 C 32.535156 -24.828125 33.347656 -28.882812 32.941406 -32.210938 C 32.699219 -35.050781 31.722656 -36.671875 28.964844 -37.726562 C 26.289062 -38.703125 20.6875 -36.917969 18.578125 -38.457031 C 15.738281 -40.488281 18.335938 -44.300781 20.363281 -44.707031 C 23.449219 -45.4375 26.773438 -43.324219 30.019531 -44.625 C 32.859375 -45.761719 34.320312 -48.4375 33.914062 -51.519531 C 33.347656 -55.820312 29.777344 -56.550781 26.042969 -57.117188 C 20.527344 -57.929688 5.921875 -60.6875 3.488281 -53.875 C 2.433594 -50.953125 3.003906 -46.894531 2.839844 -43.894531 C 2.675781 -38.457031 2.433594 -33.023438 2.191406 -27.585938 C 1.945312 -22.960938 1.785156 -18.335938 1.542969 -13.710938 C 1.378906 -10.0625 0.324219 -4.785156 3.246094 -1.945312 C 5.921875 0.648438 10.222656 -0.0820312 13.46875 -0.164062 Z M 13.46875 -0.164062" transform="translate(226.282315, 166.261902)"/></g></g></g><g fill="#8c52ff" fill-opacity="1"><g><g><path d="M 3.8125 -1.542969 C 11.519531 6.652344 15.089844 -20.527344 15.902344 -23.855469 C 19.230469 -18.417969 32.535156 9.332031 39.917969 -6.570312 C 44.542969 -16.390625 43.246094 -32.941406 41.703125 -43 C 40.972656 -48.4375 35.210938 -50.710938 31.238281 -46.570312 C 27.097656 -42.191406 28.804688 -33.589844 29.128906 -28.316406 C 25.882812 -33.347656 24.097656 -38.863281 21.015625 -43.8125 C 18.578125 -47.871094 13.304688 -51.277344 8.519531 -48.925781 C 0.890625 -45.109375 2.109375 -27.910156 1.703125 -20.6875 C 1.460938 -15.660156 0.0820312 -5.597656 3.8125 -1.542969 Z M 3.8125 -1.542969" transform="translate(263.195757, 166.261902)"/></g></g></g><g fill="#fd7f32" fill-opacity="1"><g><g><path d="M 20.121094 0 C 33.101562 -0.242188 26.53125 -32.292969 25.558594 -38.78125 C 28.804688 -38.78125 34.96875 -38.132812 37.160156 -40.972656 C 39.429688 -43.8125 37.402344 -47.707031 34.480469 -49.085938 C 30.183594 -51.113281 24.582031 -50.386719 19.960938 -50.628906 C 15.820312 -50.871094 8.4375 -52.898438 4.707031 -51.195312 C 1.460938 -49.734375 0.324219 -45.839844 1.867188 -42.757812 C 4.136719 -37.972656 10.386719 -38.621094 14.765625 -38.863281 C 15.089844 -29.695312 14.117188 -20.769531 13.792969 -11.683594 C 13.550781 -7.058594 13.792969 0.0820312 20.121094 0 Z M 20.121094 0" transform="translate(69.862174, 163.823581)"/></g></g></g><g fill="#fd7f32" fill-opacity="1"><g><g><path d="M 43.730469 -2.757812 C 50.546875 -9.492188 43.082031 -21.988281 39.105469 -27.992188 C 48.273438 -36.511719 50.386719 -49.898438 38.945312 -57.363281 C 30.914062 -62.636719 6.085938 -67.097656 3.894531 -53.550781 C 2.675781 -46.328125 3.570312 -38.214844 3.082031 -30.75 C 2.597656 -23.933594 -0.242188 -14.359375 2.191406 -7.707031 C 4.460938 -1.621094 11.359375 -0.0820312 15.578125 -5.191406 C 17.6875 -7.789062 18.417969 -11.195312 19.148438 -14.359375 C 19.390625 -15.414062 19.308594 -18.253906 20.039062 -19.066406 C 20.933594 -20.039062 25.964844 -20.445312 27.261719 -20.851562 C 28.398438 -14.847656 32.941406 7.789062 43.730469 -2.757812 Z M 18.742188 -30.992188 C 18.417969 -34.238281 16.46875 -40.324219 17.445312 -43.324219 C 18.09375 -45.515625 19.632812 -45.4375 22.070312 -45.515625 C 28.074219 -45.839844 34.726562 -40.40625 27.667969 -35.457031 C 24.910156 -33.507812 21.824219 -32.210938 18.742188 -30.992188 Z M 18.742188 -30.992188" transform="translate(105.55868, 163.823581)"/></g></g></g><g fill="#fd7f32" fill-opacity="1"><g><g><path d="M 11.519531 -1.703125 C 18.09375 1.703125 29.859375 -0.242188 34.644531 -5.921875 C 40.730469 -13.0625 40.242188 -27.34375 40 -36.1875 C 40.082031 -39.59375 40.160156 -44.300781 37.320312 -46.734375 C 33.753906 -49.734375 29.777344 -47.140625 28.558594 -43.246094 C 27.261719 -38.945312 28.964844 -33.023438 28.964844 -28.476562 C 28.964844 -24.015625 29.046875 -18.984375 27.019531 -14.847656 C 24.746094 -10.304688 20.769531 -11.519531 18.984375 -15.984375 C 17.121094 -20.769531 17.851562 -26.855469 17.929688 -31.886719 C 18.09375 -37.726562 19.472656 -50.871094 10.464844 -50.953125 C -0.972656 -50.953125 1.136719 -33.914062 1.945312 -26.855469 C 3.003906 -18.335938 2.675781 -6.246094 11.519531 -1.703125 Z M 11.519531 -1.703125" transform="translate(151.071791, 163.823581)"/></g></g></g><g fill="#fd7f32" fill-opacity="1"><g><g><path d="M 23.042969 -2.273438 C 27.421875 -6.492188 26.9375 -13.0625 26.289062 -21.339844 C 25.636719 -26.53125 25.800781 -27.828125 28.722656 -32.046875 C 30.589844 -34.808594 32.453125 -37.648438 33.914062 -40.730469 C 35.457031 -44.054688 38.375 -50.953125 33.671875 -53.144531 C 26.367188 -56.632812 22.070312 -43.730469 19.308594 -39.1875 C 16.957031 -44.300781 16.144531 -51.84375 10.546875 -54.605469 C 3.976562 -57.847656 0 -52.25 1.542969 -46.246094 C 3.164062 -39.59375 9.167969 -34.320312 9.980469 -27.828125 C 10.710938 -21.257812 7.625 -9.410156 11.441406 -3.570312 C 14.523438 1.054688 21.015625 1.460938 23.042969 -2.273438 Z M 23.042969 -2.273438" transform="translate(190.013457, 163.823581)"/></g></g></g><g fill="#fd7f32" fill-opacity="1"><g><g><path d="M 13.46875 -0.164062 C 18.5 -0.40625 23.527344 -0.324219 28.476562 -0.566406 C 32.617188 -0.8125 35.699219 -1.378906 37.320312 -5.4375 C 38.296875 -8.113281 38.863281 -12.980469 36.1875 -15.011719 C 33.183594 -17.199219 28.476562 -16.226562 25.070312 -16.390625 C 21.988281 -16.550781 14.035156 -19.066406 18.660156 -23.367188 C 21.417969 -25.964844 25.71875 -22.878906 28.964844 -23.773438 C 32.535156 -24.828125 33.347656 -28.882812 32.941406 -32.210938 C 32.699219 -35.050781 31.722656 -36.671875 28.964844 -37.726562 C 26.289062 -38.703125 20.6875 -36.917969 18.578125 -38.457031 C 15.738281 -40.488281 18.335938 -44.300781 20.363281 -44.707031 C 23.449219 -45.4375 26.773438 -43.324219 30.019531 -44.625 C 32.859375 -45.761719 34.320312 -48.4375 33.914062 -51.519531 C 33.347656 -55.820312 29.777344 -56.550781 26.042969 -57.117188 C 20.527344 -57.929688 5.921875 -60.6875 3.488281 -53.875 C 2.433594 -50.953125 3.003906 -46.894531 2.839844 -43.894531 C 2.675781 -38.457031 2.433594 -33.023438 2.191406 -27.585938 C 1.945312 -22.960938 1.785156 -18.335938 1.542969 -13.710938 C 1.378906 -10.0625 0.324219 -4.785156 3.246094 -1.945312 C 5.921875 0.648438 10.222656 -0.0820312 13.46875 -0.164062 Z M 13.46875 -0.164062" transform="translate(223.843999, 163.823581)"/></g></g></g><g fill="#fd7f32" fill-opacity="1"><g><g><path d="M 3.8125 -1.542969 C 11.519531 6.652344 15.089844 -20.527344 15.902344 -23.855469 C 19.230469 -18.417969 32.535156 9.332031 39.917969 -6.570312 C 44.542969 -16.390625 43.246094 -32.941406 41.703125 -43 C 40.972656 -48.4375 35.210938 -50.710938 31.238281 -46.570312 C 27.097656 -42.191406 28.804688 -33.589844 29.128906 -28.316406 C 25.882812 -33.347656 24.097656 -38.863281 21.015625 -43.8125 C 18.578125 -47.871094 13.304688 -51.277344 8.519531 -48.925781 C 0.890625 -45.109375 2.109375 -27.910156 1.703125 -20.6875 C 1.460938 -15.660156 0.0820312 -5.597656 3.8125 -1.542969 Z M 3.8125 -1.542969" transform="translate(260.757441, 163.823581)"/></g></g></g><g fill="#8c52ff" fill-opacity="1"><g><g><path d="M 18.417969 -1.054688 C 25.234375 1.054688 34.726562 0.648438 35.699219 -8.03125 C 36.835938 -17.929688 27.503906 -15.089844 21.09375 -17.851562 C 12.65625 -21.417969 16.308594 -29.53125 21.582031 -34.5625 C 27.828125 -36.59375 37.648438 -38.375 37.320312 -46.894531 C 36.917969 -55.660156 27.019531 -53.710938 21.257812 -51.765625 C 6.734375 -46.894531 -2.675781 -30.832031 2.757812 -15.984375 C 5.4375 -8.84375 11.195312 -3.40625 18.417969 -1.054688 Z M 18.417969 -1.054688" transform="translate(114.687206, 229.261898)"/></g></g></g><g fill="#8c52ff" fill-opacity="1"><g><g><path d="M 11.519531 -1.542969 C 14.605469 -4.542969 14.035156 -10.546875 14.199219 -14.441406 C 14.28125 -17.28125 13.628906 -19.472656 15.578125 -20.609375 C 17.769531 -21.90625 23.691406 -21.664062 26.289062 -22.070312 C 26.042969 -16.796875 24.179688 -8.679688 28.074219 -4.136719 C 34.078125 2.757812 36.429688 -9.816406 36.671875 -13.628906 C 37.160156 -19.714844 41.703125 -51.195312 36.347656 -55.660156 C 31.722656 -59.554688 26.042969 -55.089844 24.746094 -50.386719 C 23.203125 -44.867188 24.828125 -38.214844 25.476562 -32.699219 C 21.988281 -32.699219 18.5 -32.941406 14.929688 -32.777344 C 15.578125 -39.1875 18.90625 -58.742188 5.839844 -53.953125 C 1.054688 -52.167969 1.136719 -47.21875 1.21875 -42.839844 C 1.21875 -35.539062 1.460938 -28.234375 1.621094 -20.933594 C 1.703125 -15.414062 0.972656 -11.601562 2.109375 -6.167969 C 2.921875 -1.945312 7.464844 2.351562 11.519531 -1.542969 Z M 11.519531 -1.542969" transform="translate(150.78936, 229.261898)"/></g></g></g><g fill="#8c52ff" fill-opacity="1"><g><g><path d="M 1.460938 -51.195312 C 4.785156 -40 19.714844 -49.898438 17.121094 -58.09375 C 18.417969 -62.148438 11.277344 -63.691406 8.761719 -62.960938 C 4.058594 -61.664062 0.0820312 -55.984375 1.460938 -51.195312 Z M 12.089844 -1.136719 C 14.523438 -2.921875 14.847656 -5.921875 15.414062 -8.679688 C 17.199219 -17.769531 19.230469 -30.507812 15.171875 -39.269531 C 13.304688 -43.246094 8.601562 -46.003906 5.113281 -42.351562 C 2.597656 -39.675781 2.597656 -33.832031 2.273438 -30.507812 C 1.703125 -23.285156 -0.0820312 -11.035156 3.082031 -4.21875 C 4.785156 -0.648438 8.519531 1.378906 12.089844 -1.136719 Z M 12.089844 -1.136719" transform="translate(188.919739, 229.261898)"/></g></g></g><g fill="#8c52ff" fill-opacity="1"><g><g><path d="M 17.6875 -0.164062 C 24.582031 -0.890625 31.96875 -3.164062 36.1875 -9.007812 C 40.648438 -15.253906 40.730469 -25.882812 34.96875 -31.398438 C 39.835938 -35.699219 44.300781 -43.40625 41.621094 -50.058594 C 38.457031 -58.09375 28.316406 -58.171875 21.09375 -57.929688 C 15.660156 -57.847656 6.246094 -59.066406 2.921875 -53.710938 C 0.242188 -49.25 1.460938 -42.515625 1.621094 -37.566406 C 1.867188 -28.234375 0.730469 -17.605469 2.921875 -8.519531 C 4.625 -0.972656 10.710938 0.566406 17.6875 -0.164062 Z M 14.199219 -37.242188 C 13.792969 -37.566406 14.035156 -42.351562 14.199219 -42.675781 C 15.578125 -45.839844 28.152344 -44.054688 25.800781 -40.082031 C 24.503906 -37.890625 21.339844 -37.566406 19.066406 -37.320312 C 18.578125 -37.242188 14.683594 -36.835938 14.199219 -37.242188 Z M 13.710938 -12.25 C 13.792969 -14.523438 12.820312 -19.796875 13.792969 -21.582031 C 14.683594 -23.203125 16.144531 -23.285156 18.578125 -23.367188 C 21.746094 -23.449219 26.367188 -22.636719 25.3125 -18.335938 C 24.179688 -13.710938 17.605469 -12.65625 13.710938 -12.25 Z M 13.710938 -12.25" transform="translate(205.226429, 229.261898)"/></g></g></g><g fill="#8c52ff" fill-opacity="1"><g><g><path d="M 1.460938 -51.195312 C 4.785156 -40 19.714844 -49.898438 17.121094 -58.09375 C 18.417969 -62.148438 11.277344 -63.691406 8.761719 -62.960938 C 4.058594 -61.664062 0.0820312 -55.984375 1.460938 -51.195312 Z M 12.089844 -1.136719 C 14.523438 -2.921875 14.847656 -5.921875 15.414062 -8.679688 C 17.199219 -17.769531 19.230469 -30.507812 15.171875 -39.269531 C 13.304688 -43.246094 8.601562 -46.003906 5.113281 -42.351562 C 2.597656 -39.675781 2.597656 -33.832031 2.273438 -30.507812 C 1.703125 -23.285156 -0.0820312 -11.035156 3.082031 -4.21875 C 4.785156 -0.648438 8.519531 1.378906 12.089844 -1.136719 Z M 12.089844 -1.136719" transform="translate(246.439708, 229.261898)"/></g></g></g><g fill="#fd7f32" fill-opacity="1"><g><g><path d="M 18.417969 -1.054688 C 25.234375 1.054688 34.726562 0.648438 35.699219 -8.03125 C 36.835938 -17.929688 27.503906 -15.089844 21.09375 -17.851562 C 12.65625 -21.417969 16.308594 -29.53125 21.582031 -34.5625 C 27.828125 -36.59375 37.648438 -38.375 37.320312 -46.894531 C 36.917969 -55.660156 27.019531 -53.710938 21.257812 -51.765625 C 6.734375 -46.894531 -2.675781 -30.832031 2.757812 -15.984375 C 5.4375 -8.84375 11.195312 -3.40625 18.417969 -1.054688 Z M 18.417969 -1.054688" transform="translate(112.24889, 226.823577)"/></g></g></g><g fill="#fd7f32" fill-opacity="1"><g><g><path d="M 11.519531 -1.542969 C 14.605469 -4.542969 14.035156 -10.546875 14.199219 -14.441406 C 14.28125 -17.28125 13.628906 -19.472656 15.578125 -20.609375 C 17.769531 -21.90625 23.691406 -21.664062 26.289062 -22.070312 C 26.042969 -16.796875 24.179688 -8.679688 28.074219 -4.136719 C 34.078125 2.757812 36.429688 -9.816406 36.671875 -13.628906 C 37.160156 -19.714844 41.703125 -51.195312 36.347656 -55.660156 C 31.722656 -59.554688 26.042969 -55.089844 24.746094 -50.386719 C 23.203125 -44.867188 24.828125 -38.214844 25.476562 -32.699219 C 21.988281 -32.699219 18.5 -32.941406 14.929688 -32.777344 C 15.578125 -39.1875 18.90625 -58.742188 5.839844 -53.953125 C 1.054688 -52.167969 1.136719 -47.21875 1.21875 -42.839844 C 1.21875 -35.539062 1.460938 -28.234375 1.621094 -20.933594 C 1.703125 -15.414062 0.972656 -11.601562 2.109375 -6.167969 C 2.921875 -1.945312 7.464844 2.351562 11.519531 -1.542969 Z M 11.519531 -1.542969" transform="translate(148.351043, 226.823577)"/></g></g></g><g fill="#fd7f32" fill-opacity="1"><g><g><path d="M 1.460938 -51.195312 C 4.785156 -40 19.714844 -49.898438 17.121094 -58.09375 C 18.417969 -62.148438 11.277344 -63.691406 8.761719 -62.960938 C 4.058594 -61.664062 0.0820312 -55.984375 1.460938 -51.195312 Z M 12.089844 -1.136719 C 14.523438 -2.921875 14.847656 -5.921875 15.414062 -8.679688 C 17.199219 -17.769531 19.230469 -30.507812 15.171875 -39.269531 C 13.304688 -43.246094 8.601562 -46.003906 5.113281 -42.351562 C 2.597656 -39.675781 2.597656 -33.832031 2.273438 -30.507812 C 1.703125 -23.285156 -0.0820312 -11.035156 3.082031 -4.21875 C 4.785156 -0.648438 8.519531 1.378906 12.089844 -1.136719 Z M 12.089844 -1.136719" transform="translate(186.481422, 226.823577)"/></g></g></g><g fill="#fd7f32" fill-opacity="1"><g><g><path d="M 17.6875 -0.164062 C 24.582031 -0.890625 31.96875 -3.164062 36.1875 -9.007812 C 40.648438 -15.253906 40.730469 -25.882812 34.96875 -31.398438 C 39.835938 -35.699219 44.300781 -43.40625 41.621094 -50.058594 C 38.457031 -58.09375 28.316406 -58.171875 21.09375 -57.929688 C 15.660156 -57.847656 6.246094 -59.066406 2.921875 -53.710938 C 0.242188 -49.25 1.460938 -42.515625 1.621094 -37.566406 C 1.867188 -28.234375 0.730469 -17.605469 2.921875 -8.519531 C 4.625 -0.972656 10.710938 0.566406 17.6875 -0.164062 Z M 14.199219 -37.242188 C 13.792969 -37.566406 14.035156 -42.351562 14.199219 -42.675781 C 15.578125 -45.839844 28.152344 -44.054688 25.800781 -40.082031 C 24.503906 -37.890625 21.339844 -37.566406 19.066406 -37.320312 C 18.578125 -37.242188 14.683594 -36.835938 14.199219 -37.242188 Z M 13.710938 -12.25 C 13.792969 -14.523438 12.820312 -19.796875 13.792969 -21.582031 C 14.683594 -23.203125 16.144531 -23.285156 18.578125 -23.367188 C 21.746094 -23.449219 26.367188 -22.636719 25.3125 -18.335938 C 24.179688 -13.710938 17.605469 -12.65625 13.710938 -12.25 Z M 13.710938 -12.25" transform="translate(202.788113, 226.823577)"/></g></g></g><g fill="#fd7f32" fill-opacity="1"><g><g><path d="M 1.460938 -51.195312 C 4.785156 -40 19.714844 -49.898438 17.121094 -58.09375 C 18.417969 -62.148438 11.277344 -63.691406 8.761719 -62.960938 C 4.058594 -61.664062 0.0820312 -55.984375 1.460938 -51.195312 Z M 12.089844 -1.136719 C 14.523438 -2.921875 14.847656 -5.921875 15.414062 -8.679688 C 17.199219 -17.769531 19.230469 -30.507812 15.171875 -39.269531 C 13.304688 -43.246094 8.601562 -46.003906 5.113281 -42.351562 C 2.597656 -39.675781 2.597656 -33.832031 2.273438 -30.507812 C 1.703125 -23.285156 -0.0820312 -11.035156 3.082031 -4.21875 C 4.785156 -0.648438 8.519531 1.378906 12.089844 -1.136719 Z M 12.089844 -1.136719" transform="translate(244.001392, 226.823577)"/></g></g></g><g fill="#8c52ff" fill-opacity="1"><g><g><path d="M 1.621094 -2.351562 C 4.21875 3.894531 13.957031 -3.894531 9.734375 -7.871094 C 6.492188 -12.738281 -0.40625 -7.140625 1.621094 -2.351562 Z M 1.621094 -2.351562" transform="translate(280.711481, 228.995889)"/></g></g></g><g fill="#fd7f32" fill-opacity="1"><g><g><path d="M 1.621094 -2.351562 C 4.21875 3.894531 13.957031 -3.894531 9.734375 -7.871094 C 6.492188 -12.738281 -0.40625 -7.140625 1.621094 -2.351562 Z M 1.621094 -2.351562" transform="translate(278.27316, 226.557568)"/></g></g></g><g fill="#8c52ff" fill-opacity="1"><g><g><path d="M 0.0625 -5.5625 L 0.0625 -6.953125 L 4.953125 -6.953125 L 4.953125 -5.5625 L 3.296875 -5.5625 L 3.296875 0 L 1.71875 0 L 1.71875 -5.5625 Z M 0.0625 -5.5625" transform="translate(107.520777, 248.817186)"/></g></g></g><g fill="#8c52ff" fill-opacity="1"><g><g><path d="M 0.5 -6.953125 L 2.984375 -6.953125 C 3.648438 -6.953125 4.191406 -6.769531 4.609375 -6.40625 C 5.035156 -6.050781 5.25 -5.546875 5.25 -4.890625 C 5.25 -4.378906 5.117188 -3.945312 4.859375 -3.59375 C 4.609375 -3.25 4.265625 -3.007812 3.828125 -2.875 L 6.21875 0 L 4.21875 0 L 2.09375 -2.75 L 2.09375 0 L 0.5 0 Z M 2.09375 -3.859375 L 2.28125 -3.859375 C 2.425781 -3.859375 2.546875 -3.859375 2.640625 -3.859375 C 2.742188 -3.867188 2.859375 -3.890625 2.984375 -3.921875 C 3.117188 -3.960938 3.222656 -4.015625 3.296875 -4.078125 C 3.378906 -4.140625 3.445312 -4.226562 3.5 -4.34375 C 3.5625 -4.457031 3.59375 -4.597656 3.59375 -4.765625 C 3.59375 -4.941406 3.5625 -5.085938 3.5 -5.203125 C 3.445312 -5.316406 3.378906 -5.40625 3.296875 -5.46875 C 3.222656 -5.53125 3.117188 -5.578125 2.984375 -5.609375 C 2.859375 -5.648438 2.742188 -5.671875 2.640625 -5.671875 C 2.546875 -5.679688 2.425781 -5.6875 2.28125 -5.6875 L 2.09375 -5.6875 Z M 2.09375 -3.859375" transform="translate(115.33933, 248.817186)"/></g></g></g><g fill="#8c52ff" fill-opacity="1"><g><g><path d="M 5.84375 -6.953125 L 5.84375 -2.46875 C 5.84375 -1.613281 5.613281 -0.96875 5.15625 -0.53125 C 4.695312 -0.09375 4.019531 0.125 3.125 0.125 C 2.238281 0.125 1.566406 -0.09375 1.109375 -0.53125 C 0.648438 -0.96875 0.421875 -1.613281 0.421875 -2.46875 L 0.421875 -6.953125 L 2 -6.953125 L 2 -2.9375 C 2 -2.375 2.085938 -1.984375 2.265625 -1.765625 C 2.441406 -1.546875 2.726562 -1.4375 3.125 -1.4375 C 3.53125 -1.4375 3.820312 -1.546875 4 -1.765625 C 4.175781 -1.984375 4.265625 -2.375 4.265625 -2.9375 L 4.265625 -6.953125 Z M 5.84375 -6.953125" transform="translate(124.168899, 248.817186)"/></g></g></g><g fill="#8c52ff" fill-opacity="1"><g><g><path d="M -0.25 -6.953125 L 1.65625 -6.953125 L 3.09375 -4.71875 L 4.546875 -6.953125 L 6.453125 -6.953125 L 3.890625 -3.109375 L 3.890625 0 L 2.3125 0 L 2.3125 -3.109375 Z M -0.25 -6.953125" transform="translate(133.234382, 248.817186)"/></g></g></g><g fill="#8c52ff" fill-opacity="1"><g><g><path d="M 4.21875 0 L 0.765625 0 L 0.765625 -6.015625 L 4.21875 -6.015625 L 4.21875 -4.96875 L 2.03125 -4.96875 L 2.03125 -3.640625 L 4.0625 -3.640625 L 4.0625 -2.609375 L 2.03125 -2.609375 L 2.03125 -1.046875 L 4.21875 -1.046875 Z M 2.53125 1.765625 C 2.34375 1.765625 2.179688 1.71875 2.046875 1.625 C 1.921875 1.539062 1.859375 1.382812 1.859375 1.15625 C 1.859375 0.914062 1.921875 0.75 2.046875 0.65625 C 2.179688 0.570312 2.34375 0.53125 2.53125 0.53125 C 2.71875 0.53125 2.878906 0.570312 3.015625 0.65625 C 3.148438 0.75 3.21875 0.914062 3.21875 1.15625 C 3.21875 1.382812 3.148438 1.539062 3.015625 1.625 C 2.878906 1.71875 2.71875 1.765625 2.53125 1.765625 Z M 3.28125 -7.875 C 3.351562 -7.75 3.453125 -7.609375 3.578125 -7.453125 C 3.710938 -7.296875 3.84375 -7.144531 3.96875 -7 C 4.101562 -6.851562 4.222656 -6.734375 4.328125 -6.640625 L 4.328125 -6.53125 L 3.5 -6.53125 C 3.351562 -6.613281 3.191406 -6.710938 3.015625 -6.828125 C 2.835938 -6.953125 2.675781 -7.09375 2.53125 -7.25 C 2.382812 -7.09375 2.226562 -6.953125 2.0625 -6.828125 C 1.894531 -6.710938 1.738281 -6.613281 1.59375 -6.53125 L 0.765625 -6.53125 L 0.765625 -6.640625 C 0.859375 -6.742188 0.972656 -6.863281 1.109375 -7 C 1.242188 -7.144531 1.375 -7.296875 1.5 -7.453125 C 1.625 -7.609375 1.726562 -7.75 1.8125 -7.875 Z M 3.28125 -7.875" transform="translate(142.232458, 248.817186)"/></g></g></g><g fill="#8c52ff" fill-opacity="1"><g><g><path d="M 2.09375 -4.3125 L 2.09375 0 L 0.5 0 L 0.5 -6.953125 L 2.09375 -6.953125 L 4.84375 -2.640625 L 4.875 -2.640625 L 4.875 -6.953125 L 6.453125 -6.953125 L 6.453125 0 L 4.875 0 L 2.109375 -4.3125 Z M 2.09375 -4.3125" transform="translate(149.747703, 248.817186)"/></g></g></g><g fill="#8c52ff" fill-opacity="1"><g><g><path d="M 0.0625 -5.5625 L 0.0625 -6.953125 L 4.953125 -6.953125 L 4.953125 -5.5625 L 3.296875 -5.5625 L 3.296875 0 L 1.71875 0 L 1.71875 -5.5625 Z M 0.0625 -5.5625" transform="translate(164.601252, 248.817186)"/></g></g></g><g fill="#8c52ff" fill-opacity="1"><g><g><path d="M 0.5 -6.953125 L 2.984375 -6.953125 C 3.648438 -6.953125 4.191406 -6.769531 4.609375 -6.40625 C 5.035156 -6.050781 5.25 -5.546875 5.25 -4.890625 C 5.25 -4.378906 5.117188 -3.945312 4.859375 -3.59375 C 4.609375 -3.25 4.265625 -3.007812 3.828125 -2.875 L 6.21875 0 L 4.21875 0 L 2.09375 -2.75 L 2.09375 0 L 0.5 0 Z M 2.09375 -3.859375 L 2.28125 -3.859375 C 2.425781 -3.859375 2.546875 -3.859375 2.640625 -3.859375 C 2.742188 -3.867188 2.859375 -3.890625 2.984375 -3.921875 C 3.117188 -3.960938 3.222656 -4.015625 3.296875 -4.078125 C 3.378906 -4.140625 3.445312 -4.226562 3.5 -4.34375 C 3.5625 -4.457031 3.59375 -4.597656 3.59375 -4.765625 C 3.59375 -4.941406 3.5625 -5.085938 3.5 -5.203125 C 3.445312 -5.316406 3.378906 -5.40625 3.296875 -5.46875 C 3.222656 -5.53125 3.117188 -5.578125 2.984375 -5.609375 C 2.859375 -5.648438 2.742188 -5.671875 2.640625 -5.671875 C 2.546875 -5.679688 2.425781 -5.6875 2.28125 -5.6875 L 2.09375 -5.6875 Z M 2.09375 -3.859375" transform="translate(172.419805, 248.817186)"/></g></g></g><g fill="#8c52ff" fill-opacity="1"><g><g><path d="M 4.03125 -6.953125 L 6.84375 0 L 5.140625 0 L 4.625 -1.390625 L 1.984375 -1.390625 L 1.46875 0 L -0.234375 0 L 2.5625 -6.953125 Z M 4.078125 -2.78125 L 3.3125 -4.796875 L 3.296875 -4.796875 L 2.515625 -2.78125 Z M 4.078125 -2.78125" transform="translate(181.249376, 248.817186)"/></g></g></g><g fill="#8c52ff" fill-opacity="1"><g><g><path d="M 2.09375 -4.3125 L 2.09375 0 L 0.5 0 L 0.5 -6.953125 L 2.09375 -6.953125 L 4.84375 -2.640625 L 4.875 -2.640625 L 4.875 -6.953125 L 6.453125 -6.953125 L 6.453125 0 L 4.875 0 L 2.109375 -4.3125 Z M 2.09375 -4.3125" transform="translate(190.651861, 248.817186)"/></g></g></g><g fill="#8c52ff" fill-opacity="1"><g><g><path d="M 2.09375 -2.78125 L 2.09375 0 L 0.5 0 L 0.5 -6.953125 L 2.09375 -6.953125 L 2.09375 -4.171875 L 4.328125 -4.171875 L 4.328125 -6.953125 L 5.90625 -6.953125 L 5.90625 0 L 4.328125 0 L 4.328125 -2.78125 Z M 2.09375 -2.78125" transform="translate(200.4082, 248.817186)"/></g></g></g><g fill="#8c52ff" fill-opacity="1"><g><g><path d="M 6.25 0 L 5.921875 -4.125 L 5.875 -4.125 L 4.453125 -0.046875 L 3.515625 -0.046875 L 2.09375 -4.125 L 2.046875 -4.125 L 1.71875 0 L 0.140625 0 L 0.765625 -6.953125 L 2.4375 -6.953125 L 3.984375 -2.9375 L 5.53125 -6.953125 L 7.203125 -6.953125 L 7.828125 0 Z M 6.25 0" transform="translate(214.722529, 248.817186)"/></g></g></g><g fill="#8c52ff" fill-opacity="1"><g><g><path d="M 2.09375 -6.953125 L 2.09375 0 L 0.5 0 L 0.5 -6.953125 Z M 2.09375 -6.953125" transform="translate(225.489891, 248.817186)"/></g></g></g><g fill="#8c52ff" fill-opacity="1"><g><g><path d="M 4.21875 0 L 0.765625 0 L 0.765625 -6.015625 L 4.21875 -6.015625 L 4.21875 -4.96875 L 2.03125 -4.96875 L 2.03125 -3.640625 L 4.0625 -3.640625 L 4.0625 -2.609375 L 2.03125 -2.609375 L 2.03125 -1.046875 L 4.21875 -1.046875 Z M 4.03125 -8.875 C 4 -8.601562 3.910156 -8.375 3.765625 -8.1875 C 3.617188 -8 3.398438 -7.90625 3.109375 -7.90625 C 2.941406 -7.90625 2.785156 -7.9375 2.640625 -8 C 2.503906 -8.0625 2.378906 -8.117188 2.265625 -8.171875 C 2.148438 -8.234375 2.035156 -8.265625 1.921875 -8.265625 C 1.804688 -8.265625 1.71875 -8.234375 1.65625 -8.171875 C 1.601562 -8.117188 1.5625 -8.03125 1.53125 -7.90625 L 1.015625 -7.90625 C 1.046875 -8.1875 1.132812 -8.414062 1.28125 -8.59375 C 1.425781 -8.78125 1.640625 -8.875 1.921875 -8.875 C 2.109375 -8.875 2.269531 -8.84375 2.40625 -8.78125 C 2.550781 -8.726562 2.679688 -8.671875 2.796875 -8.609375 C 2.910156 -8.546875 3.019531 -8.515625 3.125 -8.515625 C 3.238281 -8.515625 3.320312 -8.546875 3.375 -8.609375 C 3.4375 -8.671875 3.484375 -8.757812 3.515625 -8.875 Z M 3.078125 -7.671875 C 3.203125 -7.484375 3.351562 -7.296875 3.53125 -7.109375 C 3.707031 -6.929688 3.878906 -6.765625 4.046875 -6.609375 L 4.046875 -6.5 L 3.453125 -6.5 C 3.285156 -6.582031 3.125 -6.671875 2.96875 -6.765625 C 2.8125 -6.867188 2.660156 -6.988281 2.515625 -7.125 C 2.367188 -6.988281 2.210938 -6.867188 2.046875 -6.765625 C 1.878906 -6.671875 1.71875 -6.582031 1.5625 -6.5 L 0.96875 -6.5 L 0.96875 -6.609375 C 1.125 -6.753906 1.289062 -6.921875 1.46875 -7.109375 C 1.65625 -7.296875 1.8125 -7.484375 1.9375 -7.671875 Z M 3.078125 -7.671875" transform="translate(230.881984, 248.817186)"/></g></g></g><g fill="#8c52ff" fill-opacity="1"><g><g><path d="M 2.09375 -4.3125 L 2.09375 0 L 0.5 0 L 0.5 -6.953125 L 2.09375 -6.953125 L 4.84375 -2.640625 L 4.875 -2.640625 L 4.875 -6.953125 L 6.453125 -6.953125 L 6.453125 0 L 4.875 0 L 2.109375 -4.3125 Z M 2.09375 -4.3125" transform="translate(238.397223, 248.817186)"/></g></g></g><g fill="#8c52ff" fill-opacity="1"><g><g><path d="M 0.5 -6.953125 L 3.046875 -6.953125 C 3.742188 -6.953125 4.3125 -6.769531 4.75 -6.40625 C 5.195312 -6.039062 5.421875 -5.507812 5.421875 -4.8125 C 5.421875 -4.113281 5.195312 -3.566406 4.75 -3.171875 C 4.300781 -2.773438 3.734375 -2.578125 3.046875 -2.578125 L 2.09375 -2.578125 L 2.09375 0 L 0.5 0 Z M 2.09375 -3.84375 L 2.53125 -3.84375 C 2.882812 -3.84375 3.175781 -3.910156 3.40625 -4.046875 C 3.632812 -4.191406 3.75 -4.429688 3.75 -4.765625 C 3.75 -5.085938 3.632812 -5.320312 3.40625 -5.46875 C 3.175781 -5.613281 2.882812 -5.6875 2.53125 -5.6875 L 2.09375 -5.6875 Z M 2.09375 -3.84375" transform="translate(253.250764, 248.817186)"/></g></g></g><g fill="#8c52ff" fill-opacity="1"><g><g><path d="M 2.09375 -2.78125 L 2.09375 0 L 0.5 0 L 0.5 -6.953125 L 2.09375 -6.953125 L 2.09375 -4.171875 L 4.328125 -4.171875 L 4.328125 -6.953125 L 5.90625 -6.953125 L 5.90625 0 L 4.328125 0 L 4.328125 -2.78125 Z M 2.09375 -2.78125" transform="translate(261.659068, 248.817186)"/></g></g></g><g fill="#8c52ff" fill-opacity="1"><g><g><path d="M 0.46875 -8.21875 L 2.1875 -9.703125 L 2.953125 -8.734375 L 0.9375 -7.578125 Z M 2.09375 -6.953125 L 2.09375 0 L 0.5 0 L 0.5 -6.953125 Z M 2.09375 -6.953125" transform="translate(270.87619, 248.817186)"/></g></g></g></svg>