<svg xmlns="http://www.w3.org/2000/svg" xmlns:xlink="http://www.w3.org/1999/xlink" xmlns:xodm="http://www.corel.com/coreldraw/odm/2003" width="2000mm" height="2000mm" version="1.1" xml:space="preserve" style="shape-rendering:geometricPrecision;text-rendering:geometricPrecision;image-rendering:optimizeQuality;fill-rule:evenodd;clip-rule:evenodd" viewBox="0 0 200000 200000" zoomAndPan="magnify"><defs><style type="text/css">.fil0,.fil1{fill:#8c52ff;fill-rule:nonzero}.fil1{fill:#fd7f32}</style></defs><g id="Layer_x0020_1"><metadata id="CorelCorpID_0Corel-Layer"/><g id="_105553117191808"><g><g><path d="M19490.86 100450.69c10895.28,-203.9 5378.65,-27098.95 4562.91,-32545.47 2723.18,0 7897.93,543.83 9735.41,-1839.57 1907.44,-2383.4 203.9,-5650.57 -2247.52,-6808.33 -3606.94,-1701.45 -8305.73,-1089.61 -12186.68,-1293.65 -3473.16,-203.9 -9669.5,-1905.35 -12800.78,-475.82 -2723.18,1225.64 -3677.05,4492.8 -2383.25,7080.1 1907.44,4016.99 7150.06,3473.16 10827.11,3269.26 271.92,7694.04 -545.92,15181.93 -817.83,22807.95 -203.9,3880.96 0,9873.55 5310.63,9805.53zm0 0z" class="fil0"/></g></g></g><g id="_105553116891776"><g><g><path d="M69259.94 98135.3c5720.52,-5650.56 -543.83,-16135.8 -3880.95,-21174.52 7694.03,-7150.21 9465.59,-18385.27 -135.89,-24647.53 -6740.31,-4426.87 -27574.91,-8171.94 -29412.39,3199.15 -1021.73,6060.45 -274,12868.64 -681.8,19132.99 -407.95,5718.43 -2791.35,13754.5 -749.82,19336.9 1907.44,5106.73 7694.03,6400.38 11235.06,2111.48 1771.55,-2179.35 2383.4,-5038.72 2995.24,-7693.88 206,-885.86 137.98,-3269.26 749.83,-3948.97 749.82,-817.84 4970.7,-1157.77 6060.45,-1499.79 951.63,5038.72 4764.71,24035.83 13820.27,15184.17zm-20970.48 -23693.81c-271.91,-2723.33 -1905.49,-7830.07 -1089.75,-10349.35 545.92,-1839.57 1839.57,-1771.56 3880.95,-1839.57 5038.72,-271.92 10623.37,4290.99 4698.79,8443.85 -2315.38,1633.59 -4902.69,2723.34 -7489.99,3745.07zm0 0z" class="fil0"/></g></g></g><g id="_105553116892224"><g><g><path d="M80425.34 99021.01c5514.53,2859.21 15385.98,1225.78 19404.91,-3541.02 5106.73,-5992.44 4696.84,-17975.38 4492.8,-25397.5 68.01,-2859.22 136.03,-6808.19 -2247.37,-8849.57 -2995.25,-2519.43 -6332.38,-342.02 -7352.02,2927.23 -1089.75,3609.04 339.93,8577.65 339.93,12390.74 0,3745.07 67.87,7967.89 -1633.58,11438.96 -1907.59,3813.08 -5242.62,2791.35 -6742.26,-951.63 -1565.57,-4019.08 -951.78,-9123.72 -883.76,-13346.55 135.88,-4902.84 1293.65,-15931.9 -6264.36,-15999.92 -9601.62,0 -7830.07,14298.32 -7150.2,20222.75 885.85,7148.11 613.93,17293.57 8035.91,21106.51zm0 0z" class="fil0"/></g></g></g><g id="_105553116895808"><g><g><path d="M122772.44 98545.19c3677.06,-3541.17 3269.11,-9057.64 2723.19,-16001.86 -543.83,-4356.92 -407.8,-5446.52 2043.62,-8987.69 1565.56,-2315.39 3131.13,-4698.79 4356.76,-7286.09 1293.65,-2791.35 3745.07,-8577.8 -203.89,-10417.22 -6128.48,-2927.23 -9737.51,7899.88 -12050.81,11710.87 -1975.6,-4288.9 -2655.32,-10621.27 -7354.11,-12936.66 -5514.53,-2723.18 -8851.8,1975.61 -7558.15,7014.18 1361.67,5582.55 6400.39,10009.42 7082.19,15456.09 611.85,5514.54 -1975.45,15455.94 1223.69,20358.63 2587.3,3880.95 8035.92,4220.88 9737.51,1089.75zm0 0z" class="fil0"/></g></g></g><g id="_105553116901504"><g><g><path d="M143128.83 100314.66c4220.88,-203.9 8441.77,-135.88 12596.73,-339.78 3471.06,-206.14 6058.51,-681.96 7420.03,-4087.1 817.83,-2245.27 1293.65,-6330.27 -951.63,-8033.82 -2519.44,-1837.48 -6468.4,-1021.73 -9329.71,-1157.76 -2587.3,-135.89 -9259.46,-2245.28 -5378.5,-5854.47 2315.38,-2179.35 5924.42,407.95 8647.75,-339.78 2995.25,-885.85 3677.06,-4290.99 3335.03,-7082.19 -203.9,-2383.4 -1019.64,-3745.07 -3335.03,-4630.93 -2247.37,-815.74 -6946.31,681.96 -8715.77,-611.69 -2383.4,-1701.6 -203.9,-4902.84 1497.55,-5242.77 2587.45,-613.79 5378.65,1157.77 8104.08,68.02 2381.31,-953.72 3606.94,-3201.09 3267.01,-5788.55 -475.81,-3606.94 -3473.15,-4220.88 -6604.29,-4696.69 -4630.77,-681.81 -16885.62,-2997.19 -18929.09,2723.33 -883.61,2451.27 -407.8,5854.47 -543.83,8373.75 -135.88,4562.91 -339.78,9123.57 -545.77,13686.48 -204.05,3880.95 -339.94,7761.9 -543.83,11643.01 -136.04,3063.11 -1021.89,7489.99 1429.53,9873.39 2247.37,2177.41 5856.56,1565.56 8579.74,1497.55zm0 0z" class="fil0"/></g></g></g><g id="_105553116892640"><g><g><path d="M166002.41 99157.04c6470.5,6876.2 9465.6,-15931.91 10145.46,-18725.2 2793.29,4562.91 13958.39,27848.77 20154.73,14504.32 3880.95,-8239.96 2791.2,-22128.25 1497.55,-30572.11 -611.7,-4562.75 -5446.52,-6468.25 -8783.64,-2995.25 -3471.06,3677.06 -2041.53,10893.19 -1769.62,15320.06 -2723.18,-4222.97 -4220.88,-8851.65 -6808.18,-13006.61 -2043.47,-3403.05 -6468.25,-6262.41 -10485.24,-4288.9 -6400.24,3201.24 -5380.59,17635.45 -5720.52,23695.9 -203.9,4220.88 -1361.67,12662.65 1769.46,16067.79zm0 0z" class="fil0"/></g></g></g><g id="_105553116803072"><g><g><path d="M17444.7 98404.38c10895.13,-203.9 5378.5,-27098.95 4562.76,-32545.47 2723.33,0 7897.93,543.83 9735.41,-1839.57 1907.59,-2383.4 204.05,-5650.42 -2247.37,-6808.19 -3606.94,-1701.59 -8305.73,-1089.75 -12186.83,-1293.65 -3473.01,-203.9 -9669.5,-1905.49 -12800.63,-475.81 -2723.33,1225.63 -3677.05,4492.8 -2383.4,7080.1 1907.59,4016.98 7150.21,3473.15 10827.26,3269.11 271.91,7694.03 -545.92,15182.08 -817.84,22808.1 -203.9,3880.95 0,9873.39 5310.64,9805.38zm0 0z" class="fil1"/></g></g></g><g id="_105553116794720"><g><g><path d="M67213.78 96088.99c5720.52,-5650.42 -543.83,-16135.65 -3880.96,-21174.37 7693.89,-7150.21 9465.6,-18385.27 -136.03,-24647.68 -6740.17,-4426.88 -27574.76,-8171.8 -29412.24,3199.14 -1021.74,6060.46 -274.01,12868.65 -681.81,19133.15 -407.94,5718.43 -2791.34,13754.34 -749.97,19336.89 1907.59,5106.74 7694.04,6400.39 11235.21,2111.49 1771.56,-2179.5 2383.41,-5038.72 2995.1,-7694.04 205.99,-885.7 138.13,-3269.1 749.82,-3948.96 749.82,-817.84 4970.71,-1157.62 6060.46,-1499.65 951.78,5038.72 4764.71,24035.84 13820.42,15184.03zm-20970.48 -23693.81c-271.91,-2723.18 -1905.5,-7829.92 -1089.75,-10349.2 545.92,-1839.58 1839.57,-1771.56 3880.95,-1839.58 5038.72,-271.91 10623.21,4290.85 4698.79,8443.86 -2315.39,1633.43 -4902.69,2723.19 -7489.99,3744.92zm0 0z" class="fil1"/></g></g></g><g id="_105553116849120"><g><g><path d="M78379.18 96974.84c5514.53,2859.22 15385.98,1225.64 19404.91,-3541.17 5106.73,-5992.44 4696.69,-17975.22 4492.79,-25397.35 68.02,-2859.21 136.04,-6808.18 -2247.37,-8849.71 -2995.25,-2519.29 -6332.37,-341.87 -7352.01,2927.23 -1089.75,3609.19 339.78,8577.8 339.78,12390.74 0,3745.07 68.02,7968.04 -1633.58,11439.1 -1907.44,3812.94 -5242.62,2791.2 -6742.26,-951.77 -1565.57,-4018.93 -951.63,-9123.57 -883.76,-13346.55 136.03,-4902.69 1293.8,-15931.76 -6264.36,-15999.77 -9601.48,0 -7829.92,14298.32 -7150.06,20222.75 885.71,7148.11 613.79,17293.42 8035.92,21106.5zm0 0z" class="fil1"/></g></g></g><g id="_105553116854624"><g><g><path d="M120726.13 96499.03c3677.05,-3541.17 3269.26,-9057.8 2723.33,-16001.86 -543.83,-4356.92 -407.79,-5446.67 2043.48,-8987.69 1565.56,-2315.39 3131.13,-4698.79 4356.91,-7286.09 1293.65,-2791.35 3744.92,-8577.8 -204.05,-10417.37 -6128.32,-2927.24 -9737.36,7900.02 -12050.8,11711.02 -1975.46,-4288.9 -2655.32,-10621.27 -7354.11,-12936.66 -5514.53,-2723.33 -8851.65,1975.46 -7558,7014.18 1361.66,5582.55 6400.38,10009.42 7082.19,15455.94 611.84,5514.53 -1975.46,15455.94 1223.69,20358.78 2587.3,3880.95 8035.91,4220.88 9737.36,1089.75zm0 0z" class="fil1"/></g></g></g><g id="_105553116849184"><g><g><path d="M141082.67 98268.5c4220.88,-203.9 8441.76,-136.04 12596.72,-339.94 3471.07,-205.99 6058.37,-681.8 7420.03,-4086.94 817.84,-2245.43 1293.66,-6330.28 -951.77,-8033.97 -2519.29,-1837.48 -6468.26,-1021.73 -9329.56,-1157.62 -2587.31,-136.03 -9259.61,-2245.42 -5378.51,-5854.46 2315.39,-2179.51 5924.43,407.8 8647.76,-339.93 2995.1,-885.71 3677.05,-4290.84 3335.03,-7082.19 -203.9,-2383.41 -1019.64,-3745.07 -3335.03,-4630.78 -2247.52,-815.74 -6946.31,681.81 -8715.77,-611.84 -2383.41,-1701.45 -203.9,-4902.69 1497.55,-5242.62 2587.3,-613.79 5378.65,1157.77 8103.92,68.01 2381.31,-953.72 3607.1,-3201.24 3267.17,-5788.54 -475.82,-3606.94 -3473.16,-4220.88 -6604.29,-4696.69 -4630.77,-681.96 -16885.62,-2997.35 -18929.09,2723.18 -883.77,2451.42 -407.95,5854.46 -543.83,8373.9 -136.04,4562.76 -339.94,9123.57 -545.93,13686.33 -203.9,3881.1 -339.93,7762.05 -543.83,11643 -135.88,3063.27 -1021.73,7490.14 1429.69,9873.55 2247.37,2177.26 5856.4,1565.56 8579.74,1497.55zm0 0z" class="fil1"/></g></g></g><g id="_105553116852896"><g><g><path d="M163956.25 97110.73c6470.35,6876.2 9465.59,-15931.76 10145.31,-18725.05 2793.44,4562.76 13958.39,27848.77 20154.88,14504.16 3880.95,-8239.81 2791.2,-22128.24 1497.55,-30571.95 -611.85,-4562.91 -5446.52,-6468.4 -8783.79,-2995.25 -3470.92,3677.06 -2041.38,10893.19 -1769.47,15320.06 -2723.33,-4222.97 -4220.88,-8851.8 -6808.18,-13006.76 -2043.47,-3403.05 -6468.26,-6262.27 -10485.24,-4288.75 -6400.39,3201.09 -5380.74,17635.29 -5720.53,23695.75 -204.04,4220.88 -1361.66,12662.65 1769.47,16067.79zm0 0z" class="fil1"/></g></g></g><g id="_105553116842112"><g><g><path d="M53631.94 152434.1c5718.43,1771.56 13686.48,1429.54 14502.22,-5854.46 953.72,-8307.98 -6876.2,-5924.58 -12254.85,-8239.96 -7082.19,-2995.1 -4016.84,-9803.44 407.95,-14026.26 5242.62,-1701.6 13482.43,-3199.15 13208.57,-10349.36 -339.93,-7352.01 -8645.82,-5718.43 -13480.49,-4085 -12188.93,4085 -20086.86,17567.58 -15523.96,30028.28 2247.37,5990.34 7080.1,10553.25 13140.56,12526.76zm0 0z" class="fil0"/></g></g></g><g id="_105553117009632"><g><g><path d="M78142.09 152026.16c2587.45,-2519.29 2109.4,-7558.01 2245.43,-10825.17 68.01,-2383.41 -475.82,-4222.98 1157.77,-5174.61 1839.42,-1089.75 6808.18,-885.85 8987.53,-1225.63 -203.89,4424.78 -1769.46,11232.97 1497.7,15045.9 5038.72,5788.54 7014.18,-4764.71 7218.08,-7965.8 407.95,-5106.74 4220.88,-31523.73 -271.92,-35268.8 -3880.95,-3269.26 -8647.75,475.81 -9737.51,4424.78 -1293.65,4630.77 68.02,10213.32 613.94,14844.1 -2929.32,0 -5856.55,-203.9 -8851.65,-67.87 543.83,-5380.74 3335.03,-21788.31 -7626.03,-17771.48 -4016.98,1497.7 -3948.96,5650.57 -3881.1,9327.62 0,6128.47 204.05,12256.8 339.93,18383.18 68.02,4630.77 -543.83,7829.92 407.95,12392.82 681.81,3541.02 4494.74,7150.21 7899.88,3880.96zm0 0z" class="fil0"/></g></g></g><g id="_105553117017824"><g><g><path d="M101697.03 110357.12c2791.35,9395.48 15320.06,1087.66 13140.55,-5788.54 1089.76,-3403.2 -4902.68,-4696.85 -7012.08,-4085 -3948.97,1089.75 -7286.09,5856.55 -6128.47,9873.54zm8919.67 42008.97c2041.53,-1497.55 2315.54,-4016.99 2791.35,-6332.37 1497.55,-7626.03 3201.24,-18315.16 -203.9,-25669.27 -1565.71,-3335.18 -5514.68,-5650.57 -8443.86,-2587.45 -2109.39,2247.52 -2109.39,7150.21 -2383.4,9941.56 -475.81,6060.3 -1973.51,16341.64 681.8,22060.23 1429.69,2997.19 4562.91,4698.78 7558.01,2587.3zm0 0z" class="fil0"/></g></g></g><g id="_105553117015424"><g><g><path d="M129000.02 153183.92c5786.45,-613.93 11982.79,-2519.43 15523.96,-7422.12 3742.98,-5242.62 3812.94,-14162.29 -1021.73,-18791.12 4084.85,-3609.04 7829.92,-10077.29 5582.55,-15661.93 -2655.32,-6740.17 -11167.2,-6808.19 -17225.56,-6604.29 -4562.76,68.02 -12460.69,-951.63 -15252.04,3541.17 -2247.37,3744.92 -1225.64,9395.49 -1089.75,13550.45 204.04,7829.92 -749.83,16749.59 1089.75,24373.52 1429.68,6332.37 6536.27,7626.02 12392.82,7014.32zm-2929.32 -31115.93c-339.78,-271.91 -135.88,-4290.99 0,-4562.91 1157.77,-2655.16 11711.02,-1157.61 9737.51,2179.51 -1089.75,1837.48 -3745.07,2111.49 -5652.51,2315.39 -407.95,68.01 -3674.96,407.94 -4085,68.01zm-407.8 20970.48c68.02,-1905.5 -749.82,-6332.37 68.02,-7829.92 749.82,-1361.67 1975.45,-1429.69 4016.83,-1497.55 2655.32,-68.02 6536.27,611.69 5650.57,4220.88 -951.78,3880.95 -6468.4,4766.81 -9735.42,5106.59zm0 0z" class="fil0"/></g></g></g><g id="_105553117005824"><g><g><path d="M149967.51 110357.12c2791.2,9395.48 15319.91,1087.66 13140.56,-5788.54 1089.6,-3403.2 -4902.84,-4696.85 -7012.24,-4085 -3948.97,1089.75 -7286.09,5856.55 -6128.32,9873.54zm8919.67 42008.97c2041.38,-1497.55 2315.39,-4016.99 2791.2,-6332.37 1497.55,-7626.03 3201.24,-18315.16 -203.9,-25669.27 -1565.56,-3335.18 -5514.53,-5650.57 -8443.85,-2587.45 -2109.4,2247.52 -2109.4,7150.21 -2383.41,9941.56 -475.81,6060.3 -1973.36,16341.64 681.81,22060.23 1429.68,2997.19 4562.9,4698.78 7558.15,2587.3zm0 0z" class="fil0"/></g></g></g><g id="_105553117017792"><g><g><path d="M51585.78 150387.79c5718.43,1771.56 13686.32,1429.68 14502.07,-5854.46 953.87,-8307.83 -6876.2,-5924.43 -12254.7,-8239.81 -7082.2,-2995.25 -4016.99,-9803.44 407.79,-14026.41 5242.62,-1701.45 13482.58,-3199.15 13208.58,-10349.21 -339.94,-7352.16 -8645.67,-5718.58 -13480.49,-4085 -12188.78,4085 -20086.72,17567.43 -15523.96,30028.27 2247.52,5990.35 7080.25,10553.26 13140.71,12526.62zm0 0z" class="fil1"/></g></g></g><g id="_105553117003904"><g><g><path d="M76095.93 149979.99c2587.3,-2519.43 2109.39,-7558.15 2245.43,-10825.17 67.86,-2383.4 -475.97,-4222.97 1157.61,-5174.75 1839.58,-1089.6 6808.19,-885.7 8987.69,-1225.63 -203.9,4424.78 -1769.46,11233.11 1497.55,15046.05 5038.72,5788.54 7014.33,-4764.71 7218.23,-7965.95 407.79,-5106.59 4220.88,-31523.73 -271.92,-35268.8 -3880.95,-3269.11 -8647.76,475.96 -9737.51,4424.93 -1293.65,4630.77 68.02,10213.32 613.79,14844.09 -2929.18,0 -5856.41,-203.89 -8851.66,-68.01 543.83,-5380.6 3335.18,-21788.31 -7626.02,-17771.33 -4016.98,1497.55 -3948.97,5650.57 -3880.95,9327.62 0,6128.32 203.9,12256.79 339.93,18383.17 67.87,4630.78 -543.83,7829.92 407.8,12392.68 681.95,3541.17 4494.89,7150.21 7900.03,3881.1zm0 0z" class="fil1"/></g></g></g><g id="_105553117033984"><g><g><path d="M99650.87 108310.81c2791.2,9395.48 15320.05,1087.66 13140.55,-5788.54 1089.75,-3403.05 -4902.69,-4696.7 -7012.08,-4084.86 -3948.97,1089.76 -7286.24,5856.41 -6128.47,9873.4zm8919.67 42008.96c2041.38,-1497.54 2315.38,-4016.83 2791.2,-6332.22 1497.7,-7626.02 3201.24,-18315.3 -203.9,-25669.41 -1565.57,-3335.03 -5514.53,-5650.42 -8443.86,-2587.3 -2109.39,2247.37 -2109.39,7150.2 -2383.4,9941.41 -475.82,6060.45 -1973.37,16341.79 681.95,22060.22 1429.54,2997.34 4562.76,4698.79 7558.01,2587.3zm0 0z" class="fil1"/></g></g></g><g id="_105553117021504"><g><g><path d="M126953.86 151137.61c5786.45,-613.79 11982.79,-2519.28 15523.96,-7421.97 3742.98,-5242.77 3812.94,-14162.44 -1021.89,-18791.12 4085,-3609.04 7830.07,-10077.44 5582.55,-15661.94 -2655.31,-6740.31 -11167.04,-6808.18 -17225.4,-6604.28 -4562.91,68.01 -12460.85,-951.78 -15252.05,3541.02 -2247.52,3745.07 -1225.63,9395.63 -1089.75,13550.59 203.9,7829.92 -749.82,16749.6 1089.75,24373.53 1429.54,6332.37 6536.27,7626.02 12392.83,7014.17zm-2929.32 -31115.78c-339.93,-271.92 -136.04,-4290.99 0,-4562.91 1157.62,-2655.32 11710.87,-1157.77 9737.51,2179.51 -1089.76,1837.48 -3745.07,2111.48 -5652.66,2315.38 -407.8,68.02 -3674.96,407.8 -4084.85,68.02zm-407.95 20970.47c68.02,-1905.49 -749.82,-6332.37 68.02,-7829.92 749.82,-1361.66 1975.6,-1429.68 4016.98,-1497.69 2655.32,-67.87 6536.27,611.84 5650.42,4220.88 -951.63,3881.1 -6468.26,4766.8 -9735.42,5106.73zm0 0z" class="fil1"/></g></g></g><g id="_105553117033536"><g><g><path d="M147921.2 108310.81c2791.35,9395.48 15320.06,1087.66 13140.55,-5788.54 1089.76,-3403.05 -4902.68,-4696.7 -7012.08,-4084.86 -3948.97,1089.76 -7286.09,5856.41 -6128.47,9873.4zm8919.67 42008.96c2041.53,-1497.54 2315.39,-4016.83 2791.35,-6332.22 1497.55,-7626.02 3201.09,-18315.3 -204.05,-25669.41 -1565.56,-3335.03 -5514.53,-5650.42 -8443.71,-2587.3 -2109.39,2247.37 -2109.39,7150.2 -2383.4,9941.41 -475.81,6060.45 -1973.51,16341.79 681.81,22060.22 1429.68,2997.34 4562.9,4698.79 7558,2587.3zm0 0z" class="fil1"/></g></g></g></g></svg>